<svg xmlns="http://www.w3.org/2000/svg" width="19" height="18" viewBox="0 0 19 18" fill="none">
  <path fill-rule="evenodd" clip-rule="evenodd" d="M12.879 1.9083C13.3199 1.46742 14.0336 1.46742 14.4744 1.9083L17.1721 4.60595C17.613 5.04683 17.613 5.7605 17.1721 6.20139L8.17621 15.1973C8.09359 15.2799 7.9864 15.3335 7.87074 15.35L3.75309 15.9382C3.58483 15.9623 3.41507 15.9057 3.29489 15.7855C3.1747 15.6653 3.11811 15.4956 3.14215 15.3273L3.73039 11.2097C3.74691 11.094 3.8005 10.9868 3.88312 10.9042L12.879 1.9083ZM13.7108 2.67197C13.6917 2.65286 13.6618 2.65286 13.6427 2.67197L4.77408 11.5406L4.31312 14.7673L7.53981 14.3063L16.4084 5.43771C16.4275 5.41859 16.4275 5.38874 16.4084 5.36962L13.7108 2.67197Z" fill="#9FA6B2"/>
  <path fill-rule="evenodd" clip-rule="evenodd" d="M15.8225 3.25704C16.0333 3.46792 16.0333 3.80983 15.8225 4.02071L8.76363 11.0795C8.55275 11.2904 8.21084 11.2904 7.99996 11.0795C7.78908 10.8687 7.78908 10.5267 7.99996 10.3159L15.0588 3.25704C15.2697 3.04616 15.6116 3.04616 15.8225 3.25704Z" fill="#9FA6B2"/>
  <path fill-rule="evenodd" clip-rule="evenodd" d="M3.88277 10.9043C4.09365 10.6934 4.43556 10.6934 4.64645 10.9043L8.17586 14.4337C8.38674 14.6446 8.38674 14.9865 8.17586 15.1973C7.96498 15.4082 7.62307 15.4082 7.41218 15.1973L3.88277 11.6679C3.67189 11.457 3.67189 11.1151 3.88277 10.9043Z" fill="#9FA6B2"/>
</svg>