<svg xmlns="http://www.w3.org/2000/svg" width="19" height="18" viewBox="0 0 19 18" fill="none">
  <g clip-path="url(#clip0_8012_13585)">
    <path fill-rule="evenodd" clip-rule="evenodd" d="M7.89462 10.545C7.63101 10.2813 7.63101 9.85396 7.89462 9.59036L14.3291 3.02012H10.8676C10.4948 3.02012 10.1926 2.71792 10.1926 2.34512C10.1926 1.97233 10.4948 1.67012 10.8676 1.67012H15.9587C16.3315 1.67012 16.6337 1.97233 16.6337 2.34512L16.6337 7.43629C16.6337 7.80909 16.3315 8.11129 15.9587 8.11129C15.5859 8.11129 15.2837 7.80908 15.2837 7.43629L15.2837 3.97472L8.84921 10.545C8.58561 10.8086 8.15822 10.8086 7.89462 10.545Z" fill="#9FA6B2"/>
    <path fill-rule="evenodd" clip-rule="evenodd" d="M5.00039 4.27505C4.37907 4.27505 3.87539 4.77873 3.87539 5.40005V13.5C3.87539 14.1214 4.37907 14.625 5.00039 14.625H13.1004C13.7217 14.625 14.2254 14.1214 14.2254 13.5V10.35C14.2254 9.97726 14.5276 9.67505 14.9004 9.67505C15.2732 9.67505 15.5754 9.97726 15.5754 10.35V13.5C15.5754 14.867 14.4673 15.975 13.1004 15.975H5.00039C3.63349 15.975 2.52539 14.867 2.52539 13.5V5.40005C2.52539 4.03314 3.63349 2.92505 5.00039 2.92505H8.15039C8.52318 2.92505 8.82539 3.22726 8.82539 3.60005C8.82539 3.97284 8.52318 4.27505 8.15039 4.27505H5.00039Z" fill="#9FA6B2"/>
  </g>
  <defs>
    <clipPath id="clip0_8012_13585">
      <rect width="18" height="18" fill="white" transform="translate(0.5)"/>
    </clipPath>
  </defs>
</svg>